<?xml version="1.0" encoding="UTF-8" standalone="no"?>
<!-- Created with Inkscape (http://www.inkscape.org/) -->

<svg
   version="1.1"
   id="svg2"
   width="596.26666"
   height="592"
   viewBox="0 0 596.26666 592"
   sodipodi:docname="linkedin.svg"
   inkscape:version="1.2.2 (b0a8486541, 2022-12-01)"
   xmlns:inkscape="http://www.inkscape.org/namespaces/inkscape"
   xmlns:sodipodi="http://sodipodi.sourceforge.net/DTD/sodipodi-0.dtd"
   xmlns="http://www.w3.org/2000/svg"
   xmlns:svg="http://www.w3.org/2000/svg">
  <defs
     id="defs6" />
  <sodipodi:namedview
     id="namedview4"
     pagecolor="#ffffff"
     bordercolor="#666666"
     borderopacity="1.0"
     inkscape:showpageshadow="2"
     inkscape:pageopacity="0.0"
     inkscape:pagecheckerboard="0"
     inkscape:deskcolor="#d1d1d1"
     showgrid="false"
     inkscape:zoom="1.0081049"
     inkscape:cx="240.55035"
     inkscape:cy="289.65239"
     inkscape:window-width="1920"
     inkscape:window-height="1029"
     inkscape:window-x="0"
     inkscape:window-y="27"
     inkscape:window-maximized="1"
     inkscape:current-layer="g8" />
  <g
     inkscape:groupmode="layer"
     inkscape:label="Image"
     id="g8">
    <path
       style="fill:#e0e0e0;stroke-width:1.06667;fill-opacity:1"
       d="m 49.767047,575.91615 c -9.18642,-1.19914 -15.95833,-4.7101 -23.45747,-12.16178 -4.60186,-4.57274 -7.24294,-8.31654 -9.06666,-12.85225 l -2.57333,-6.4 V 294.36879 44.235465 l 3.37549,-7.124916 c 4.51515,-9.530478 10.77643,-16.094158 19.40467,-20.341823 l 7.04165,-3.466595 H 296.24715 548.00292 l 6.09927,2.858726 c 8.5169,3.99187 16.1462,11.482239 20.31003,19.940177 l 3.45736,7.022906 v 251.22241 251.22244 l -3.29233,6.93333 c -6.18148,13.01759 -17.56823,21.3771 -31.90767,23.42481 -9.00708,1.28624 -483.045603,1.27586 -492.902533,-0.0108 z M 181.60292,358.3564 V 222.87736 l -41.86666,0.27904 -41.866669,0.27905 -0.27075,135.2 -0.27076,135.2 h 42.137419 42.13742 z m 136.81692,57.34572 c 0.44082,-86.58067 0.35632,-85.45738 7.56023,-100.50273 6.28158,-13.11908 16.15335,-20.4412 31.05855,-23.03682 15.54545,-2.70713 30.89391,0.83304 39.38341,9.08389 5.71579,5.55511 8.5554,10.87112 11.61372,21.74197 2.25024,7.99851 2.30915,9.98832 2.65048,89.51369 l 0.34907,81.33333 h 41.91042 41.91042 l 0.70526,-42.4 c 1.38333,-83.16522 0.41975,-131.66515 -3.03579,-152.8 -8.36977,-51.19141 -33.60304,-76.10953 -82.1395,-81.11365 -23.23208,-2.39523 -41.66661,0.30895 -57.96025,8.50226 -14.4469,7.26468 -25.21595,16.60216 -33.85948,29.35839 l -3.57791,5.28033 -0.29278,-18.61366 -0.29277,-18.61367 -40.26667,-0.2795 -40.26666,-0.27948 v 135.47948 135.4795 h 42.07622 42.07622 z M 155.75955,184.4903 c 27.75448,-9.75491 40.49608,-41.20027 27.47289,-67.80113 -8.0859,-16.51607 -25.2271,-27.144051 -43.72029,-27.107711 -43.765429,0.086 -64.985423,53.435481 -33.50033,84.223661 5.11648,5.00323 17.04044,11.2444 24.4513,12.79817 6.56792,1.37704 18.10965,0.41296 25.29643,-2.11299 z"
       id="path295" />
  </g>
</svg>
